<svg
  xmlns="http://www.w3.org/2000/svg" viewBox="0 0 148.008 16.414"
  width="160" height="18"
>
  <path d="m148.008.492-4.254 15.871h-4.916l1.7-6.349h-5.466l-1.7 6.349h-4.917l3.2-11.948a4.936 4.936 0 0 1 2.138-3.2 7.953 7.953 0 0 1 3.835-.728zM41.075 2.784a7.111 7.111 0 0 1-.287 1.808l-2.006 7.473a5.759 5.759 0 0 1-2.05 3.483 7.512 7.512 0 0 1-4.012.816h-10.4L26.575.493h10.4a8.365 8.365 0 0 1 2.667.308 1.948 1.948 0 0 1 1.433 1.984zm-5.2 1.808h-5.489l-2.006 7.473h5.489l2.006-7.473zm22.308-1.808A4.58 4.58 0 0 0 56.745.8a8.363 8.363 0 0 0-2.667-.308h-10.4l-4.255 15.871h10.4a7.511 7.511 0 0 0 4.012-.816 5.756 5.756 0 0 0 2.05-3.483l2.006-7.473a7.1 7.1 0 0 0 .287-1.808zm-5.2 1.808-2.006 7.473h-5.489l2.006-7.473zm21.933-4.1-1.1 4.1h-9.391l-.551 2.072h6.415q3 0 3 2.16a20.976 20.976 0 0 1-.727 3.241 6.45 6.45 0 0 1-1.817 3.362 5.723 5.723 0 0 1-3.637.937H56.417l1.146-4.3h10.14l.551-2.05h-6.415a4.126 4.126 0 0 1-2.579-.573 1.657 1.657 0 0 1-.485-1.323 23.681 23.681 0 0 1 .794-3.527 5.763 5.763 0 0 1 1.808-3.2 5.909 5.909 0 0 1 3.593-.9zm16.511 2.226a1.885 1.885 0 0 0-1.146-1.9 6.222 6.222 0 0 0-2.359-.331L77.204.486l-4.259 15.877h4.916l1.684-6.22h6.349a5.147 5.147 0 0 0 2.557-.573 4.512 4.512 0 0 0 2.116-2.91l.529-1.94a8.345 8.345 0 0 0 .331-2.006zm-5.224 1.874-.573 2.182-5.185-.004.573-2.182zm20.875-4.1-1.1 4.1h-8.465l-.551 2.072h7.716l-.9 3.35h-7.715l-.552 2.05h8.465l-1.147 4.3-13.457-.004L93.627.489zm16.114 2.292A1.948 1.948 0 0 0 121.759.8a8.363 8.363 0 0 0-2.667-.308h-10.4l-4.255 15.871h10.4a7.51 7.51 0 0 0 4.012-.816 5.756 5.756 0 0 0 2.05-3.483l2.006-7.473a7.1 7.1 0 0 0 .287-1.808zm-5.2 1.808-2.006 7.473h-5.489l2.006-7.473zm24.05-.177h-5.467l-.639 2.425h5.466z" fill="#fff" fill-rule="evenodd"></path> <path d="M20.816 13.908a8.5 8.5 0 0 0 .709-1.772l2.212-7.727q.753-2.59-.195-3.545Q22.702 0 19.93 0h-5.636a10.333 10.333 0 0 0-2.961.341 4.333 4.333 0 0 0-2.59 2.091 9.441 9.441 0 0 0-.777 1.977l-2.211 7.723H9.08L.001 16.363h15.252a10.312 10.312 0 0 0 2.961-.341 4.421 4.421 0 0 0 2.6-2.113zm-4.359-1.772h-5.636l2.2-7.7h7.545l-2.282 1.309z" fill="#00b1ff" fill-rule="evenodd"></path> <path d="M121.529 16.414h4.924l3.742-12.935-7.4 8.661z" fill="#fff"></path> <path d="m123.588 8.675 7.136-8.35h-4.742z" fill="#00b1ff"></path>
</svg>